<svg width="21" height="21" viewBox="0 0 21 21" fill="none" xmlns="http://www.w3.org/2000/svg">
<path fill-rule="evenodd" clip-rule="evenodd" d="M10.0617 0.5C4.48585 0.5 0 5.06926 0 10.7488C0 15.2754 2.89275 19.1187 6.87551 20.4852C7.3786 20.5706 7.5463 20.2717 7.5463 19.9727C7.5463 19.7165 7.5463 19.076 7.5463 18.2219C4.7374 18.8625 4.15046 16.8554 4.15046 16.8554C3.6893 15.6597 3.01852 15.3608 3.01852 15.3608C2.09619 14.7202 3.10237 14.7202 3.10237 14.7202C4.10854 14.8056 4.65355 15.7878 4.65355 15.7878C5.53395 17.3678 7.00129 16.8981 7.58822 16.6419C7.67207 15.9586 7.92361 15.5316 8.21708 15.2754C5.99511 15.0192 3.64738 14.1224 3.64738 10.1937C3.64738 9.08338 4.02469 8.14391 4.69547 7.46065C4.61163 7.20443 4.23431 6.17955 4.77932 4.72764C4.77932 4.72764 5.6178 4.47142 7.5463 5.79522C8.34285 5.5817 9.22325 5.45359 10.0617 5.45359C10.9002 5.45359 11.7806 5.5817 12.5772 5.79522C14.5057 4.47142 15.3441 4.72764 15.3441 4.72764C15.8891 6.13685 15.5538 7.16173 15.428 7.46065C16.0568 8.18661 16.4761 9.08338 16.4761 10.1937C16.4761 14.1224 14.1283 14.9764 11.8645 15.2327C12.2418 15.5316 12.5352 16.1721 12.5352 17.1116C12.5352 18.4781 12.5352 19.5884 12.5352 19.93C12.5352 20.1863 12.7029 20.5279 13.2479 20.4425C17.2307 19.1187 20.1235 15.2754 20.1235 10.7488C20.1235 5.06926 15.6376 0.5 10.0617 0.5Z" fill="white"/>
</svg>
