<svg width="25" height="25" viewBox="0 0 25 25" fill="none" xmlns="http://www.w3.org/2000/svg">
<path d="M17.2653 7.552C17.3299 7.91138 17.2465 8.26034 16.9132 8.29263L16.359 8.39263L16.1299 17.0562C15.6424 17.3166 15.1986 17.4603 14.833 17.4468C14.2424 17.426 14.0997 17.2228 13.6767 16.6187L10.233 10.4239L10.0767 16.2947L11.2101 16.6114C11.2101 16.6114 11.1913 17.3208 10.2726 17.2885L7.73091 17.3593C7.66216 17.1978 7.74653 16.8051 8.00695 16.7385L8.67361 16.5624L8.87882 8.802L7.96216 8.69159C7.89757 8.33221 8.09653 7.82804 8.61007 7.80617L11.3361 7.70304L14.9247 13.9812L15.0694 8.54263L14.1153 8.3895C14.0982 8.2984 14.1008 8.20469 14.1232 8.11472C14.1455 8.02475 14.1869 7.94064 14.2446 7.86811C14.3023 7.79557 14.375 7.73631 14.4576 7.69435C14.5403 7.65239 14.631 7.62871 14.7236 7.62492L17.2653 7.552Z" fill="white"/>
<path fill-rule="evenodd" clip-rule="evenodd" d="M17.9769 2.95099C14.3367 2.54726 10.663 2.54726 7.02277 2.95099C4.92693 3.18536 3.23423 4.8364 2.98839 6.94265C2.55725 10.635 2.55725 14.3649 2.98839 18.0572C3.23423 20.1635 4.92589 21.8145 7.02277 22.0489C10.663 22.4518 14.3367 22.4518 17.9769 22.0489C20.0728 21.8145 21.7655 20.1635 22.0113 18.0572C22.4424 14.3649 22.4424 10.635 22.0113 6.94265C21.7655 4.8364 20.0738 3.18536 17.9769 2.95099ZM7.19568 4.50307C10.721 4.11214 14.2787 4.11214 17.804 4.50307C19.1894 4.65932 20.2988 5.75203 20.4603 7.12495C20.8781 10.6961 20.8781 14.3038 20.4603 17.8749C20.3768 18.5469 20.0692 19.171 19.5872 19.6466C19.1052 20.1221 18.477 20.4213 17.804 20.4958C14.2787 20.8867 10.721 20.8867 7.19568 20.4958C6.52271 20.4213 5.89449 20.1221 5.41251 19.6466C4.93054 19.171 4.62295 18.5469 4.53943 17.8749C4.12158 14.3038 4.12158 10.6961 4.53943 7.12495C4.62295 6.45303 4.93054 5.82888 5.41251 5.35333C5.89449 4.87778 6.52271 4.57756 7.19568 4.50307Z" fill="white"/>
</svg>
