<svg width="13" height="12" viewBox="0 0 13 12" fill="none" xmlns="http://www.w3.org/2000/svg">
<path fill-rule="evenodd" clip-rule="evenodd" d="M6.5 12C9.8137 12 12.5 9.3137 12.5 6C12.5 2.6863 9.8137 0 6.5 0C3.1863 0 0.5 2.6863 0.5 6C0.5 9.3137 3.1863 12 6.5 12ZM4.24184 7.64808C4.406 7.69975 4.58384 7.7256 4.77536 7.7256C5.21617 7.7256 5.56729 7.62377 5.82872 7.42008C6.09015 7.21337 6.27255 6.90175 6.37592 6.48528C6.40633 6.35455 6.4352 6.22385 6.46256 6.09312C6.49297 5.96239 6.51879 5.83015 6.54008 5.6964C6.57656 5.48969 6.57049 5.3088 6.52184 5.15376C6.47624 4.99872 6.39567 4.86799 6.28016 4.7616C6.16767 4.65521 6.02936 4.57615 5.8652 4.52448C5.70409 4.46976 5.52776 4.4424 5.33624 4.4424C4.89241 4.4424 4.53975 4.54879 4.27832 4.7616C4.01689 4.97441 3.836 5.286 3.73568 5.6964C3.70527 5.83015 3.67489 5.96239 3.64448 6.09312C3.61712 6.22385 3.59127 6.35455 3.56696 6.48528C3.53353 6.69199 3.5396 6.87288 3.5852 7.02792C3.63385 7.18296 3.71439 7.31215 3.82688 7.41552C3.93937 7.51889 4.07768 7.59641 4.24184 7.64808ZM5.26784 6.92304C5.14321 7.02031 4.9988 7.06896 4.83464 7.06896C4.66743 7.06896 4.54736 7.02031 4.4744 6.92304C4.40144 6.82577 4.3832 6.67073 4.41968 6.45792C4.44399 6.32417 4.46833 6.198 4.49264 6.07944C4.52 5.96088 4.55041 5.83776 4.58384 5.71008C4.63551 5.49727 4.72215 5.34223 4.84376 5.24496C4.96839 5.14769 5.1128 5.09904 5.27696 5.09904C5.44112 5.09904 5.56119 5.14769 5.6372 5.24496C5.71321 5.34223 5.73145 5.49727 5.69192 5.71008C5.67063 5.83776 5.64632 5.96088 5.61896 6.07944C5.59465 6.198 5.56575 6.32417 5.53232 6.45792C5.48065 6.67073 5.39247 6.82577 5.26784 6.92304ZM6.6537 7.64808C6.67194 7.66937 6.69625 7.68 6.72666 7.68H7.34682C7.38025 7.68 7.40912 7.66937 7.43346 7.64808C7.46082 7.62679 7.47752 7.59943 7.48362 7.566L7.69338 6.56736H8.30898C8.70114 6.56736 9.01273 6.48377 9.24378 6.31656C9.47785 6.14935 9.63289 5.89097 9.7089 5.54136C9.74538 5.36503 9.74384 5.21153 9.70434 5.0808C9.66481 4.94705 9.5949 4.83607 9.49458 4.74792C9.39426 4.65977 9.26809 4.59439 9.1161 4.55184C8.96713 4.50929 8.79992 4.488 8.6145 4.488H7.40154C7.37113 4.488 7.34226 4.49863 7.3149 4.51992C7.28754 4.54121 7.27081 4.56857 7.26474 4.602L6.63546 7.566C6.62936 7.59943 6.63546 7.62679 6.6537 7.64808ZM8.33634 5.93808H7.81194L7.98978 5.12184H8.53698C8.64642 5.12184 8.72696 5.14008 8.77866 5.17656C8.83338 5.21304 8.8653 5.26169 8.87442 5.32248C8.88354 5.38327 8.88049 5.45321 8.8653 5.53224C8.83489 5.66904 8.76954 5.77087 8.66922 5.83776C8.57192 5.90465 8.46097 5.93808 8.33634 5.93808Z" fill="white"/>
</svg>
