<svg width="20" height="20" viewBox="0 0 20 20" fill="none" xmlns="http://www.w3.org/2000/svg">
<g clip-path="url(#clip0_140_4526)">
<path d="M3.61719 0.820312C2.36719 0.820312 1.11563 1.75781 1.11563 3.63281L3.61719 8.63281L6.11719 3.63281C6.11719 1.75781 4.86719 0.820312 3.61719 0.820312ZM14.6445 2.34375C14.375 2.35508 14.1133 2.40625 13.8945 2.45312L14.043 3.14062C14.2617 3.0918 14.4883 3.06094 14.6797 3.04688L14.6445 2.34375ZM3.61719 2.38281C4.30859 2.38281 4.86719 2.94258 4.86719 3.63281C4.86719 4.32422 4.30859 4.88281 3.61719 4.88281C2.92695 4.88281 2.36719 4.32422 2.36719 3.63281C2.36719 2.94258 2.92695 2.38281 3.61719 2.38281ZM15.4219 2.39062L15.3047 3.08203C15.4961 3.12227 15.6875 3.17266 15.8555 3.27344L16.1953 2.65625C15.957 2.5293 15.6914 2.41523 15.4219 2.39062ZM13.1758 2.65234C12.9375 2.74531 12.6992 2.82852 12.4961 2.91016L12.7734 3.55469C12.9883 3.46328 13.2148 3.38359 13.4063 3.31641L13.1758 2.65234ZM16.8359 3.17578L16.3008 3.63281C16.4414 3.79375 16.5508 3.99219 16.6367 4.15234L17.2656 3.83594C17.1328 3.58008 17.0156 3.38633 16.8359 3.17578ZM11.8438 3.21094C11.6055 3.33242 11.4102 3.44063 11.1992 3.54688L11.543 4.16406C11.7461 4.04688 11.9688 3.93359 12.1484 3.84375L11.8438 3.21094ZM10.582 3.91016C10.375 4.03125 10.1719 4.15234 9.97266 4.28516L10.3555 4.87109C10.5469 4.74609 10.7461 4.62891 10.9414 4.51172L10.582 3.91016ZM17.5078 4.60938C17.2773 4.64844 17.043 4.67578 16.8125 4.70312C16.8281 4.89844 16.8164 5.10938 16.7773 5.27344L17.4609 5.43359C17.5 5.15234 17.5352 4.86328 17.5078 4.60938ZM9.37891 4.67578C9.18359 4.80859 8.99219 4.94531 8.79688 5.07812L9.20313 5.65234C9.39063 5.51562 9.58203 5.38672 9.77344 5.25391L9.37891 4.67578ZM8.22266 5.5C8.02734 5.64062 7.82422 5.79688 7.65625 5.92578L8.08203 6.48438C8.29688 6.32812 8.44531 6.21094 8.64063 6.06641L8.22266 5.5ZM16.543 5.8125C16.4258 5.99219 16.2891 6.17188 16.1523 6.30859L16.6641 6.79688C16.832 6.59766 17.0117 6.39453 17.1367 6.19141L16.543 5.8125ZM7.09766 6.36328C6.90625 6.51172 6.71484 6.66406 6.54688 6.80469L6.99219 7.34766C7.17578 7.19531 7.36328 7.03906 7.53516 6.91406L7.09766 6.36328ZM15.668 6.75781C15.4883 6.90234 15.3008 7.04297 15.1289 7.16016L15.5313 7.73828C15.7383 7.59766 15.9414 7.44531 16.1172 7.30469L15.668 6.75781ZM6.00391 7.26172C5.82031 7.41016 5.64453 7.56641 5.46484 7.71875L5.92188 8.25391C6.09766 8.10156 6.27344 7.94922 6.45313 7.80078L6.00391 7.26172ZM14.5547 7.53516C14.3555 7.65234 14.1484 7.77344 13.9609 7.875L14.2969 8.49609C14.5078 8.36719 14.7461 8.25391 14.9219 8.13672L14.5547 7.53516ZM4.92969 8.18359C4.75391 8.33984 4.58203 8.49609 4.40625 8.65625L4.87891 9.17969C5.05078 9.02344 5.22656 8.86719 5.39844 8.71094L4.92969 8.18359ZM13.3477 8.19922C13.1406 8.30078 12.9336 8.40625 12.7266 8.50781L13.0273 9.14062C13.2695 9.02344 13.4492 8.92578 13.668 8.82422L13.3477 8.19922ZM12.0977 8.80078C11.8828 8.89844 11.6758 8.99219 11.457 9.08203L11.7422 9.72656C11.957 9.63281 12.1719 9.53516 12.3867 9.4375L12.0977 8.80078ZM3.89063 9.14062C3.69141 9.31641 3.55273 9.45312 3.37109 9.62891L3.86719 10.1367C4.05078 9.96094 4.19922 9.80859 4.37109 9.66016L3.89063 9.14062ZM10.8164 9.36719C10.6016 9.45703 10.3867 9.55078 10.1719 9.64062L10.4453 10.293C10.6641 10.2031 10.8789 10.1094 11.0938 10.0156L10.8164 9.36719ZM9.52344 9.91406C9.30859 10.0078 9.09375 10.1016 8.875 10.1875L9.14844 10.8398C9.36328 10.75 9.58203 10.6562 9.79688 10.5664L9.52344 9.91406ZM16.7422 10.1953C15.4922 10.1953 14.2422 11.1328 14.2422 13.0078L16.7422 18.0078L19.2422 13.0078C19.2422 11.1328 17.9922 10.1953 16.7422 10.1953ZM8.22656 10.4609C8.00391 10.5625 7.76953 10.6562 7.57813 10.7383L7.85547 11.3867C8.08594 11.2891 8.30469 11.1953 8.5 11.1094L8.22656 10.4609ZM6.92969 11.0156C6.71875 11.1133 6.47266 11.2227 6.28516 11.3086L6.57422 11.9492C6.80469 11.8477 7.00781 11.7461 7.21094 11.6602L6.92969 11.0156ZM5.64062 11.6016C5.42188 11.707 5.19531 11.8164 5 11.9141L5.31641 12.543C5.52734 12.4336 5.74609 12.332 5.9375 12.2383L5.64062 11.6016ZM16.7422 11.7578C17.4336 11.7578 17.9922 12.3164 17.9922 13.0078C17.9922 13.6992 17.4336 14.2578 16.7422 14.2578C16.0508 14.2578 15.4922 13.6992 15.4922 13.0078C15.4922 12.3164 16.0508 11.7578 16.7422 11.7578ZM4.36719 12.2383C4.16016 12.3516 3.95313 12.4688 3.74219 12.5898L4.09375 13.1992C4.29297 13.082 4.49609 12.9727 4.69922 12.8633L4.36719 12.2383ZM3.12891 12.9688C2.90977 13.0938 2.69805 13.2617 2.51563 13.3828L2.94141 13.9453C3.13555 13.8047 3.34453 13.6602 3.51172 13.5586L3.12891 12.9688ZM1.96094 13.8516C1.77344 14.0234 1.58867 14.2227 1.44531 14.3906L1.98047 14.8477C2.13086 14.6641 2.26172 14.5273 2.4375 14.3711L1.96094 13.8516ZM10.4688 13.9023L10.5313 14.6016C10.7344 14.5664 10.9375 14.5898 11.1406 14.6211L11.2617 13.9297C11.0039 13.8906 10.7305 13.8633 10.4688 13.9023ZM9.01563 14.293L9.28125 14.9453C9.48438 14.8555 9.69531 14.7852 9.91016 14.7188C9.83594 14.4961 9.78125 14.2695 9.72266 14.043C9.47656 14.1133 9.23047 14.207 9.01563 14.293ZM12.043 14.2578L11.6445 14.8359C11.8086 14.957 11.9688 15.0859 12.0977 15.2461L12.6289 14.7852C12.4297 14.582 12.2773 14.3906 12.043 14.2578ZM8.35156 14.6094C8.13672 14.7188 7.92969 14.8438 7.72266 14.9648L8.07813 15.5703C8.28125 15.4609 8.48047 15.332 8.67969 15.2266L8.35156 14.6094ZM1.01602 15.0391C0.898047 15.293 0.802344 15.5664 0.757812 15.8086L1.44922 15.9297C1.49141 15.707 1.55195 15.5469 1.64063 15.3555C1.42617 15.2617 1.22148 15.1484 1.01602 15.0391ZM7.11328 15.3438C6.91406 15.4727 6.71875 15.6016 6.52344 15.7344L6.91406 16.3203C7.10938 16.1914 7.30078 16.0586 7.49609 15.9297L7.11328 15.3438ZM13.0781 15.3906L12.4883 15.7734C12.6133 15.9609 12.7344 16.1563 12.8477 16.3555L13.457 16.0039C13.3203 15.7852 13.2227 15.5898 13.0781 15.3906ZM5.94141 16.1328C5.74609 16.2617 5.55078 16.3867 5.35938 16.5234L5.75 17.1094C5.9375 16.9727 6.13672 16.8438 6.33594 16.7109L5.94141 16.1328ZM1.45703 16.5039C1.23086 16.5508 1.00273 16.5898 0.775391 16.6328C0.816406 16.9062 0.926172 17.1719 1.02539 17.3828L1.66016 17.0781C1.57539 16.8828 1.49492 16.6797 1.45703 16.5039ZM13.8047 16.6133L13.1953 16.9648C13.3164 17.1758 13.457 17.4023 13.5703 17.582L14.1602 17.2031C14.0273 16.9961 13.9141 16.8008 13.8047 16.6133ZM4.78125 16.9062C4.58594 17.0273 4.39453 17.1445 4.19141 17.2578L4.53906 17.8711C4.74609 17.75 4.95312 17.6289 5.15234 17.5L4.78125 16.9062ZM1.99609 17.543L1.51563 18.0586C1.73281 18.2656 2.00078 18.4023 2.29297 18.4648L2.44922 17.7812C2.27578 17.7461 2.11367 17.6602 1.99609 17.543ZM3.59766 17.5547C3.40195 17.6445 3.19883 17.7148 2.98828 17.7578L3.14844 18.4453C3.39922 18.3945 3.63516 18.3008 3.87109 18.2031L3.59766 17.5547ZM14.5469 17.7422L14.0039 18.1836C14.1719 18.3906 14.3789 18.5898 14.5586 18.7305L14.9922 18.1758C14.8203 18.043 14.6719 17.8828 14.5469 17.7422ZM15.4883 18.4258L15.3125 19.1094C15.6211 19.1719 15.8516 19.1914 16.1406 19.1602L16.0547 18.4609C15.8633 18.4922 15.6758 18.4727 15.4883 18.4258Z" fill="#404040"/>
</g>
<defs>
<clipPath id="clip0_140_4526">
<rect width="20" height="20" fill="white"/>
</clipPath>
</defs>
</svg>
